<svg width="500" height="500" viewBox="0 0 500 500" fill="none" xmlns="http://www.w3.org/2000/svg">
  <path
    d="M250 479.01C380.98 479.01 487.16 415.434 487.16 337.01C487.16 258.586 380.98 195.01 250 195.01C119.02 195.01 12.8398 258.586 12.8398 337.01C12.8398 415.434 119.02 479.01 250 479.01Z"
    fill="#F5F5F5"/>
  <path
    d="M30.4493 365.762V183.215L23.0234 178.937V359.385C23.0288 360.313 23.2332 361.229 23.623 362.071C24.0127 362.913 24.5787 363.662 25.2827 364.267C25.9867 364.871 26.8123 365.317 27.7036 365.576C28.5949 365.834 29.5313 365.897 30.4493 365.762Z"
    fill="#EBEBEB"/>
  <path d="M26.3477 365.008L33.9857 369.322V355.861L26.3477 365.008Z" fill="#EBEBEB"/>
  <path
    d="M294.705 18.7383V211.363C294.701 214.837 293.784 218.248 292.046 221.256C290.309 224.264 287.811 226.763 284.804 228.501L40.1745 369.169C39.1893 369.737 38.0717 370.037 36.934 370.037C35.7963 370.037 34.6787 369.738 33.6932 369.17C32.7078 368.601 31.8894 367.783 31.3201 366.798C30.7509 365.813 30.4508 364.696 30.4502 363.558V170.886C30.4497 167.411 31.3646 163.998 33.1028 160.989C34.8409 157.981 37.341 155.483 40.3514 153.748L284.981 13.0805C285.969 12.5097 287.091 12.21 288.233 12.2119C289.375 12.2138 290.496 12.5172 291.483 13.0913C292.469 13.6655 293.287 14.4901 293.853 15.4816C294.419 16.4732 294.713 17.5967 294.705 18.7383Z"
    fill="#FAFAFA"/>
  <path
    d="M288.21 13.3752C288.912 13.3768 289.606 13.5169 290.254 13.7875C290.901 14.0582 291.489 14.454 291.983 14.9524C292.477 15.4507 292.867 16.0417 293.132 16.6914C293.397 17.3411 293.531 18.0367 293.526 18.7384V211.363C293.52 214.629 292.657 217.836 291.023 220.663C289.389 223.491 287.041 225.84 284.215 227.476L39.5852 368.143C38.7849 368.614 37.8733 368.862 36.9449 368.862C35.537 368.862 34.1867 368.304 33.1901 367.309C32.1935 366.315 31.632 364.966 31.6289 363.558V170.886C31.6352 167.62 32.4985 164.414 34.1326 161.586C35.7667 158.758 38.1143 156.409 40.9407 154.773L285.57 14.0943C286.371 13.6257 287.282 13.3776 288.21 13.3752ZM288.21 12.1965C287.075 12.2 285.96 12.505 284.981 13.0806L40.3514 153.748C37.341 155.483 34.8409 157.981 33.1028 160.989C31.3646 163.998 30.4497 167.412 30.4502 170.886V363.558C30.4508 364.696 30.7509 365.813 31.3201 366.798C31.8894 367.783 32.7078 368.601 33.6932 369.17C34.6787 369.738 35.7963 370.037 36.934 370.037C38.0717 370.037 39.1893 369.738 40.1745 369.169L284.804 228.549C287.811 226.81 290.309 224.311 292.046 221.303C293.784 218.296 294.701 214.884 294.705 211.41V18.7384C294.705 17.0159 294.021 15.3639 292.803 14.1459C291.585 12.9279 289.933 12.2437 288.21 12.2437V12.1965Z"
    fill="#E0E0E0"/>
  <path
    d="M284.225 9.00222C283.232 8.3704 282.085 8.02408 280.908 8.00121C279.731 7.97834 278.571 8.2798 277.554 8.87256L32.9246 149.575C29.9151 151.311 27.4156 153.809 25.6776 156.818C23.9395 159.826 23.0242 163.239 23.0234 166.714V178.972L30.4493 183.251L287.231 34.9456V17.4654L291.545 13.1513L284.19 8.99043L284.225 9.00222Z"
    fill="#7E70F9"/>
  <path
    d="M294.705 18.7383V30.6551L30.4502 183.215V170.886C30.4497 167.412 31.3646 163.998 33.1028 160.989C34.8409 157.981 37.341 155.483 40.3514 153.748L284.981 13.0805C285.969 12.5097 287.091 12.21 288.233 12.2119C289.375 12.2138 290.496 12.5172 291.483 13.0913C292.469 13.6655 293.287 14.4901 293.853 15.4816C294.419 16.4732 294.713 17.5967 294.705 18.7383Z"
    fill="#7E70F9"/>
  <g style="mix-blend-mode:overlay" opacity="0.5">
    <path
      d="M294.705 18.7383V30.6551L30.4502 183.215V170.886C30.4497 167.412 31.3646 163.998 33.1028 160.989C34.8409 157.981 37.341 155.483 40.3514 153.748L284.981 13.0805C285.969 12.5097 287.091 12.21 288.233 12.2119C289.375 12.2138 290.496 12.5172 291.483 13.0913C292.469 13.6655 293.287 14.4901 293.853 15.4816C294.419 16.4732 294.713 17.5967 294.705 18.7383Z"
      fill="white"/>
  </g>
  <path opacity="0.2"
        d="M25.5578 156.977C23.8827 159.936 23.0015 163.278 23 166.678V178.937L30.4259 183.215V170.886C30.4252 167.505 31.2939 164.181 32.9483 161.233L25.5578 156.977Z"
        fill="black"/>
  <path
    d="M155.523 271.112C153.592 271.133 151.689 270.646 150.006 269.697C146.046 267.399 143.854 262.625 143.854 256.248C143.854 243.389 152.918 227.688 164.068 221.252C169.585 218.058 174.818 217.575 178.779 219.862C182.739 222.148 184.943 226.934 184.943 233.299C184.943 246.17 175.879 261.871 164.728 268.306C161.957 270.027 158.783 270.994 155.523 271.112ZM173.274 219.779C170.246 219.899 167.301 220.805 164.728 222.408C153.955 228.631 145.197 243.813 145.197 256.248C145.197 262.142 147.142 266.491 150.678 268.542C154.214 270.593 158.929 270.086 164.068 267.151C174.842 260.928 183.6 245.746 183.6 233.299C183.6 227.405 181.655 223.056 178.119 221.017C176.641 220.184 174.97 219.757 173.274 219.779Z"
    fill="#455A64"/>
  <path
    d="M164.397 273.941C164.22 273.938 164.051 273.866 163.926 273.741C163.8 273.615 163.729 273.446 163.726 273.269V212.047C163.726 211.869 163.796 211.698 163.922 211.572C164.048 211.446 164.219 211.375 164.397 211.375C164.576 211.375 164.747 211.446 164.873 211.572C164.999 211.698 165.069 211.869 165.069 212.047V273.34C165.049 273.504 164.97 273.656 164.847 273.767C164.723 273.877 164.563 273.939 164.397 273.941Z"
    fill="#7E70F9"/>
  <path
    d="M137.323 261.211C137.207 261.209 137.092 261.178 136.991 261.121C136.89 261.063 136.806 260.98 136.745 260.881C136.66 260.727 136.638 260.546 136.684 260.376C136.73 260.207 136.841 260.062 136.993 259.973L187.336 230.906C187.411 230.86 187.495 230.83 187.582 230.818C187.669 230.806 187.758 230.812 187.843 230.835C187.928 230.858 188.007 230.898 188.076 230.953C188.145 231.008 188.202 231.076 188.243 231.154C188.287 231.229 188.316 231.313 188.327 231.4C188.339 231.487 188.333 231.575 188.31 231.659C188.286 231.744 188.247 231.823 188.193 231.892C188.139 231.961 188.072 232.018 187.996 232.061L137.653 261.128C137.553 261.186 137.439 261.214 137.323 261.211Z"
    fill="#7E70F9"/>
  <path
    d="M140.835 263.179C140.719 263.175 140.606 263.143 140.505 263.085L136.415 260.727L140.152 254.256C140.195 254.179 140.253 254.111 140.323 254.056C140.392 254.001 140.472 253.96 140.558 253.936C140.643 253.912 140.732 253.905 140.82 253.916C140.908 253.926 140.994 253.954 141.071 253.997C141.148 254.04 141.216 254.099 141.271 254.168C141.326 254.238 141.367 254.318 141.391 254.403C141.415 254.488 141.422 254.578 141.412 254.666C141.401 254.754 141.374 254.839 141.33 254.916L138.266 260.232L141.201 261.93C141.354 262.021 141.464 262.168 141.509 262.341C141.553 262.513 141.527 262.696 141.436 262.849C141.377 262.955 141.289 263.042 141.183 263.1C141.077 263.158 140.956 263.186 140.835 263.179Z"
    fill="#7E70F9"/>
  <path
    d="M160.933 218.754C160.817 218.75 160.704 218.717 160.603 218.659C160.451 218.571 160.34 218.426 160.294 218.256C160.248 218.086 160.27 217.905 160.356 217.752L164.21 211.08L168.194 213.379C168.35 213.468 168.465 213.615 168.513 213.789C168.56 213.962 168.537 214.148 168.448 214.304C168.359 214.46 168.211 214.575 168.037 214.622C167.864 214.67 167.679 214.647 167.522 214.557L164.693 212.931L161.523 218.435C161.459 218.534 161.372 218.614 161.269 218.67C161.166 218.726 161.05 218.754 160.933 218.754Z"
    fill="#7E70F9"/>
  <path
    d="M216.885 197.183L207.196 202.782C206.56 203.147 206.018 202.782 206.018 201.91V191.136C206.027 190.702 206.138 190.276 206.343 189.893C206.548 189.51 206.84 189.181 207.196 188.932L216.885 183.333C217.522 182.968 218.064 183.333 218.064 184.206V194.991C218.054 195.423 217.942 195.847 217.737 196.228C217.532 196.609 217.241 196.936 216.885 197.183Z"
    fill="#7E70F9"/>
  <path
    d="M235.25 186.422L225.549 192.009C224.924 192.374 224.37 192.009 224.37 191.136V180.363C224.381 179.929 224.493 179.504 224.698 179.121C224.903 178.738 225.194 178.409 225.549 178.159L235.25 172.56C235.886 172.195 236.428 172.56 236.428 173.432V184.217C236.421 184.652 236.311 185.079 236.106 185.462C235.901 185.845 235.607 186.174 235.25 186.422Z"
    fill="#7E70F9"/>
  <path
    d="M216.885 217.811L207.196 223.41C206.56 223.775 206.018 223.41 206.018 222.537V211.752C206.028 211.32 206.139 210.896 206.344 210.515C206.549 210.134 206.841 209.806 207.196 209.56L216.885 203.961C217.522 203.595 218.064 203.961 218.064 204.833V215.583C218.059 216.021 217.949 216.452 217.744 216.839C217.539 217.227 217.245 217.56 216.885 217.811Z"
    fill="#7E70F9"/>
  <path
    d="M235.25 207.049L225.549 212.648C224.924 213.013 224.37 212.648 224.37 211.776V200.99C224.381 200.558 224.493 200.135 224.698 199.754C224.903 199.373 225.194 199.045 225.549 198.798L235.25 193.187C235.886 192.822 236.428 193.187 236.428 194.06V204.833C236.421 205.269 236.311 205.698 236.106 206.083C235.901 206.468 235.607 206.799 235.25 207.049Z"
    fill="#7E70F9"/>
  <path
    d="M216.885 238.426L207.196 244.025C206.56 244.391 206.018 244.025 206.018 243.153V232.379C206.027 231.945 206.138 231.519 206.343 231.136C206.548 230.753 206.84 230.424 207.196 230.175L216.885 224.576C217.522 224.211 218.064 224.576 218.064 225.449V236.234C218.054 236.666 217.942 237.09 217.737 237.471C217.532 237.852 217.241 238.179 216.885 238.426Z"
    fill="#7E70F9"/>
  <path
    d="M235.25 227.665L225.549 233.263C224.924 233.629 224.37 233.263 224.37 232.403V221.618C224.381 221.184 224.493 220.759 224.698 220.376C224.903 219.993 225.194 219.664 225.549 219.414L235.25 213.815C235.886 213.449 236.428 213.815 236.428 214.687V225.472C236.419 225.905 236.308 226.329 236.103 226.71C235.898 227.091 235.606 227.418 235.25 227.665Z"
    fill="#7E70F9"/>
  <path
    d="M253.615 175.66L243.914 181.259C243.278 181.624 242.735 181.259 242.735 180.398V169.613C242.744 169.179 242.856 168.753 243.061 168.37C243.266 167.987 243.558 167.658 243.914 167.409L253.615 161.822C254.24 161.445 254.794 161.822 254.794 162.682V173.468C254.783 173.9 254.67 174.324 254.466 174.704C254.261 175.085 253.969 175.413 253.615 175.66Z"
    fill="#7E70F9"/>
  <path
    d="M253.615 196.287L243.914 201.886C243.278 202.252 242.735 201.886 242.735 201.014V190.229C242.744 189.796 242.856 189.372 243.061 188.991C243.266 188.61 243.558 188.282 243.914 188.036L253.615 182.437C254.24 182.072 254.794 182.437 254.794 183.31V194.095C254.781 194.527 254.668 194.95 254.463 195.33C254.258 195.711 253.968 196.039 253.615 196.287Z"
    fill="#7E70F9"/>
  <path
    d="M253.615 216.915L243.914 222.502C243.278 222.867 242.735 222.502 242.735 221.641V210.868C242.744 210.434 242.856 210.008 243.061 209.625C243.266 209.242 243.558 208.913 243.914 208.664L253.615 203.077C254.24 202.7 254.794 203.077 254.794 203.937V214.722C254.779 215.154 254.665 215.576 254.461 215.957C254.256 216.337 253.967 216.665 253.615 216.915Z"
    fill="#7E70F9"/>
  <path
    d="M271.967 164.898L262.278 170.486C261.642 170.851 261.1 170.485 261.1 169.625V158.84C261.111 158.406 261.223 157.981 261.427 157.598C261.632 157.215 261.924 156.886 262.278 156.636L271.967 151.049C272.604 150.671 273.146 151.049 273.146 151.909V162.694C273.135 163.128 273.023 163.553 272.818 163.936C272.613 164.319 272.322 164.648 271.967 164.898Z"
    fill="#7E70F9"/>
  <path
    d="M271.967 185.526L262.278 191.125C261.642 191.49 261.1 191.125 261.1 190.252V179.467C261.11 179.035 261.223 178.611 261.428 178.23C261.632 177.85 261.924 177.522 262.278 177.275L271.967 171.676C272.604 171.31 273.146 171.676 273.146 172.548V183.333C273.136 183.766 273.024 184.19 272.819 184.571C272.614 184.952 272.323 185.279 271.967 185.526Z"
    fill="#7E70F9"/>
  <path opacity="0.2"
        d="M216.885 217.811L207.196 223.41C206.56 223.775 206.018 223.41 206.018 222.537V211.752C206.028 211.32 206.139 210.896 206.344 210.515C206.549 210.134 206.841 209.806 207.196 209.56L216.885 203.961C217.522 203.595 218.064 203.961 218.064 204.833V215.583C218.059 216.021 217.949 216.452 217.744 216.839C217.539 217.227 217.245 217.56 216.885 217.811Z"
        fill="black"/>
  <path opacity="0.2"
        d="M235.25 207.049L225.549 212.648C224.924 213.013 224.37 212.648 224.37 211.776V200.99C224.381 200.558 224.493 200.135 224.698 199.754C224.903 199.373 225.194 199.045 225.549 198.798L235.25 193.187C235.886 192.822 236.428 193.187 236.428 194.06V204.833C236.421 205.269 236.311 205.698 236.106 206.083C235.901 206.468 235.607 206.799 235.25 207.049Z"
        fill="black"/>
  <path opacity="0.2"
        d="M253.615 196.287L243.914 201.886C243.278 202.252 242.735 201.886 242.735 201.014V190.229C242.744 189.796 242.856 189.372 243.061 188.991C243.266 188.61 243.558 188.282 243.914 188.036L253.615 182.437C254.24 182.072 254.794 182.437 254.794 183.31V194.095C254.781 194.527 254.668 194.95 254.463 195.33C254.258 195.711 253.968 196.039 253.615 196.287Z"
        fill="black"/>
  <path opacity="0.2"
        d="M271.967 185.526L262.278 191.125C261.642 191.49 261.1 191.125 261.1 190.252V179.467C261.11 179.035 261.223 178.611 261.428 178.23C261.632 177.85 261.924 177.522 262.278 177.275L271.967 171.676C272.604 171.31 273.146 171.676 273.146 172.548V183.333C273.136 183.766 273.024 184.19 272.819 184.571C272.614 184.952 272.323 185.279 271.967 185.526Z"
        fill="black"/>
  <path
    d="M271.967 206.153L262.278 211.74C261.642 212.117 261.1 211.74 261.1 210.88V200.095C261.111 199.661 261.223 199.235 261.427 198.853C261.632 198.47 261.924 198.14 262.278 197.89L271.967 192.303C272.604 191.938 273.146 192.303 273.146 193.164V203.949C273.135 204.383 273.023 204.808 272.818 205.191C272.613 205.574 272.322 205.903 271.967 206.153Z"
    fill="#7E70F9"/>
  <path opacity="0.3"
        d="M216.885 238.426L207.196 244.025C206.56 244.391 206.018 244.025 206.018 243.153V232.379C206.027 231.945 206.138 231.519 206.343 231.136C206.548 230.753 206.84 230.424 207.196 230.175L216.885 224.576C217.522 224.211 218.064 224.576 218.064 225.449V236.234C218.054 236.666 217.942 237.09 217.737 237.471C217.532 237.852 217.241 238.179 216.885 238.426Z"
        fill="black"/>
  <path opacity="0.3"
        d="M235.25 227.665L225.549 233.263C224.924 233.629 224.37 233.263 224.37 232.403V221.618C224.381 221.184 224.493 220.759 224.698 220.376C224.903 219.993 225.194 219.664 225.549 219.414L235.25 213.815C235.886 213.449 236.428 213.815 236.428 214.687V225.472C236.419 225.905 236.308 226.329 236.103 226.71C235.898 227.091 235.606 227.418 235.25 227.665Z"
        fill="black"/>
  <path opacity="0.3"
        d="M253.615 216.915L243.914 222.502C243.278 222.867 242.735 222.502 242.735 221.641V210.868C242.744 210.434 242.856 210.008 243.061 209.625C243.266 209.242 243.558 208.913 243.914 208.664L253.615 203.077C254.24 202.7 254.794 203.077 254.794 203.937V214.722C254.779 215.154 254.665 215.576 254.461 215.957C254.256 216.337 253.967 216.665 253.615 216.915Z"
        fill="black"/>
  <path opacity="0.3"
        d="M271.967 206.153L262.278 211.74C261.642 212.117 261.1 211.74 261.1 210.88V200.095C261.111 199.661 261.223 199.235 261.427 198.853C261.632 198.47 261.924 198.14 262.278 197.89L271.967 192.303C272.604 191.938 273.146 192.303 273.146 193.164V203.949C273.135 204.383 273.023 204.808 272.818 205.191C272.613 205.574 272.322 205.903 271.967 206.153Z"
        fill="black"/>
  <path
    d="M105.628 231.107L58.1967 258.5C55.0849 260.291 52.5625 258.382 52.5625 254.245V201.438C52.5625 197.289 55.0849 192.48 58.1967 190.689L105.628 163.295C108.74 161.504 111.262 163.401 111.262 167.55V220.321C111.262 224.494 108.74 229.315 105.628 231.107Z"
    fill="#455A64"/>
  <path d="M91.1178 194.614L66.2588 208.959L72.7063 198.503L97.5653 184.158L91.1178 194.614Z" fill="#7E70F9"/>
  <path opacity="0.2" d="M91.1178 194.614L66.2588 208.959L72.7063 198.503L97.5653 184.158L91.1178 194.614Z"
        fill="white"/>
  <path d="M91.1178 223.315L66.2588 237.672V208.959L91.1178 194.614V223.315Z" fill="#7E70F9"/>
  <path d="M91.1172 194.614L97.5647 184.158V212.86L91.1172 223.315V194.614Z" fill="#7E70F9"/>
  <path opacity="0.2" d="M91.1172 194.614L97.5647 184.158V212.86L91.1172 223.315V194.614Z" fill="black"/>
  <path
    d="M186.074 184.665L138.643 212.047C135.531 213.838 133.009 211.941 133.009 207.792V155.033C133.009 150.883 135.531 146.074 138.643 144.271L186.074 116.889C189.186 115.086 191.709 116.996 191.709 121.145V173.904C191.756 178.053 189.186 182.862 186.074 184.665Z"
    fill="#455A64"/>
  <path d="M171.565 148.161L146.706 162.517L153.154 152.062L178.013 137.717L171.565 148.161Z" fill="#7E70F9"/>
  <path d="M171.565 176.874L146.706 191.219V162.517L171.565 148.161V176.874Z" fill="#7E70F9"/>
  <path d="M171.564 148.161L178.012 137.717V166.419L171.564 176.874V148.161Z" fill="#7E70F9"/>
  <path opacity="0.2" d="M171.564 148.161L178.012 137.717V166.419L171.564 176.874V148.161Z" fill="black"/>
  <path opacity="0.2" d="M146.706 162.517L153.154 152.062V180.764L146.706 191.219V162.517Z" fill="black"/>
  <path opacity="0.3" d="M171.565 176.874L146.706 191.219L153.154 180.764L178.013 166.419L171.565 176.874Z"
        fill="black"/>
  <path opacity="0.2" d="M171.565 148.161L146.706 162.517L153.154 152.062L178.013 137.717L171.565 148.161Z"
        fill="white"/>
  <path
    d="M266.522 138.212L219.09 165.606C215.978 167.397 213.456 165.488 213.456 161.35V108.58C213.456 104.442 215.978 99.6214 219.09 97.8298L266.522 70.4366C269.633 68.6449 272.156 70.5545 272.156 74.6917V127.463C272.156 131.6 269.633 136.421 266.522 138.212Z"
    fill="#455A64"/>
  <path
    d="M227.117 116.571C227.05 116.573 226.984 116.56 226.923 116.534C226.862 116.507 226.808 116.468 226.763 116.418C226.698 116.334 226.663 116.23 226.663 116.123C226.663 116.017 226.698 115.913 226.763 115.829L233.211 105.374C233.25 105.305 233.307 105.248 233.376 105.209L258.235 90.8519C258.33 90.8021 258.438 90.7844 258.544 90.8015C258.649 90.8185 258.747 90.8693 258.821 90.9464C258.895 91.0234 258.943 91.1224 258.956 91.2286C258.969 91.3349 258.948 91.4425 258.895 91.5355L252.447 101.991C252.402 102.054 252.346 102.11 252.282 102.156L227.423 116.501C227.332 116.557 227.224 116.582 227.117 116.571ZM233.906 105.963L228.543 114.685L251.622 101.354L256.997 92.6317L233.906 105.963Z"
    fill="#7E70F9"/>
  <path
    d="M227.117 145.261C227.031 145.258 226.947 145.238 226.87 145.202C226.798 145.157 226.739 145.094 226.698 145.02C226.656 144.946 226.634 144.862 226.634 144.778V116.076C226.633 115.991 226.655 115.907 226.696 115.833C226.737 115.759 226.797 115.696 226.87 115.652L251.764 101.248C251.84 101.208 251.925 101.187 252.011 101.187C252.098 101.187 252.183 101.208 252.259 101.248C252.331 101.293 252.39 101.356 252.431 101.43C252.472 101.504 252.494 101.587 252.495 101.672V130.374C252.495 130.459 252.474 130.543 252.432 130.617C252.391 130.691 252.331 130.754 252.259 130.798L227.4 145.155C227.316 145.212 227.219 145.249 227.117 145.261ZM227.6 116.347V143.941L251.493 130.15V102.556L227.6 116.347Z"
    fill="#7E70F9"/>
  <path
    d="M233.6 134.806C233.514 134.803 233.43 134.783 233.352 134.747C233.279 134.703 233.219 134.641 233.177 134.567C233.136 134.492 233.115 134.408 233.116 134.323V105.621C233.114 105.536 233.134 105.451 233.176 105.376C233.217 105.301 233.278 105.239 233.352 105.197L258.211 90.84C258.285 90.7998 258.368 90.7787 258.453 90.7787C258.537 90.7787 258.62 90.7998 258.694 90.84C258.769 90.8831 258.831 90.9449 258.875 91.0193C258.918 91.0937 258.941 91.1782 258.942 91.2643V119.966C258.942 120.052 258.92 120.137 258.876 120.212C258.833 120.287 258.77 120.348 258.694 120.39L233.835 134.747C233.762 134.784 233.682 134.804 233.6 134.806ZM234.083 105.904V133.486L257.975 119.695V92.1012L234.083 105.904Z"
    fill="#7E70F9"/>
  <path
    d="M252.012 130.904H251.87C251.768 130.876 251.677 130.814 251.613 130.729C251.549 130.643 251.515 130.539 251.517 130.433V101.72C251.516 101.628 251.541 101.539 251.587 101.46L258.035 91.0168C258.087 90.9243 258.169 90.8526 258.268 90.814C258.367 90.7753 258.476 90.772 258.577 90.8047C258.678 90.8327 258.767 90.8927 258.831 90.9756C258.894 91.0585 258.929 91.1598 258.931 91.2644V119.966C258.931 120.057 258.906 120.147 258.86 120.225L252.424 130.716C252.375 130.778 252.313 130.827 252.241 130.86C252.169 130.893 252.091 130.908 252.012 130.904ZM252.495 101.861V128.712L257.976 119.836V92.9971L252.495 101.861Z"
    fill="#7E70F9"/>
  <path
    d="M227.117 145.261C227.026 145.26 226.937 145.235 226.858 145.19C226.75 145.12 226.674 145.011 226.645 144.885C226.617 144.76 226.638 144.628 226.705 144.518L233.152 134.063C233.221 133.954 233.33 133.876 233.456 133.848C233.582 133.819 233.715 133.841 233.824 133.91C233.934 133.979 234.011 134.088 234.04 134.214C234.069 134.34 234.046 134.473 233.977 134.582L227.53 145.037C227.485 145.106 227.424 145.162 227.352 145.201C227.28 145.24 227.199 145.261 227.117 145.261Z"
    fill="#7E70F9"/>
  <path
    d="M105.628 261.776L58.1967 289.17C55.0849 290.961 52.5625 289.064 52.5625 284.914C52.5625 280.777 55.0849 275.956 58.1967 274.165L105.628 246.771C108.74 244.98 111.262 246.889 111.262 251.027C111.262 255.176 108.74 259.985 105.628 261.776Z"
    fill="#7E70F9"/>
  <path
    d="M105.628 283.653L58.1967 311.058C55.0849 312.85 52.5625 310.941 52.5625 306.803C52.5625 302.654 55.0849 297.845 58.1967 296.053L105.628 268.625C108.74 266.833 111.262 268.731 111.262 272.88C111.262 277.053 108.74 281.862 105.628 283.653Z"
    fill="#7E70F9"/>
  <path
    d="M105.628 305.53L58.1967 332.923C55.0849 334.715 52.5625 332.805 52.5625 328.668C52.5625 324.519 55.0849 319.71 58.1967 317.907L105.628 290.525C108.74 288.722 111.262 290.631 111.262 294.78C111.262 298.918 108.74 303.738 105.628 305.53Z"
    fill="#7E70F9"/>
  <path
    d="M438.413 317.588C438.413 317.588 441.56 322.103 439.768 325.226C439.032 326.491 438.026 327.577 436.822 328.409C435.29 329.52 433.908 330.824 432.708 332.287C429.49 336.177 422.972 342.718 416.736 340.75C407.99 337.98 417.526 330.92 417.526 330.92L438.413 317.588Z"
    fill="#263238"/>
  <path
    d="M427.356 306.78L428.535 317.588L421.58 327.36L417.49 330.896C417.49 330.896 420.048 337.591 428.016 328.998C433.91 322.598 438.377 317.565 438.377 317.565V306.756L427.356 306.78Z"
    fill="#FFA8A7"/>
  <path
    d="M400.823 309.42C400.823 309.42 403.64 314.135 401.637 317.14C400.806 318.344 399.724 319.354 398.466 320.099C396.856 321.081 395.382 322.27 394.081 323.635C390.604 327.289 383.638 333.348 377.579 330.943C369.057 327.56 379.064 321.195 379.064 321.195L400.823 309.42Z"
    fill="#263238"/>
  <path
    d="M390.556 297.857L390.957 308.701L383.331 317.942L378.993 321.207C378.993 321.207 381.068 328.067 389.602 320.028C395.99 314.064 400.752 309.361 400.752 309.361L401.53 298.588L390.556 297.857Z"
    fill="#FFA8A7"/>
  <path
    d="M393.621 169.884L386.808 237.566C386.79 237.821 386.79 238.077 386.808 238.332L389.531 302.654C389.531 302.654 394.977 306.19 403.098 302.654C403.098 302.654 408.862 262.071 405.915 245.439C405.684 244.171 405.757 242.867 406.127 241.632C408.956 232.568 420.673 194.484 421.639 182.555L393.621 169.884Z"
    fill="#455A64"/>
  <path
    d="M415.71 194.861L397.899 183.345C397.899 183.345 398.772 191.184 407.753 198.256L411.561 223.728C413.812 216.043 416.275 207.226 418.244 199.517L415.71 194.861Z"
    fill="#37474F"/>
  <path
    d="M396.309 169.884C396.603 170.155 391.594 189.734 410.382 195.439L416.158 246.889L426.448 310.917C426.448 310.917 433.968 313.71 438.954 308.866C438.954 308.866 442.16 266.432 435.831 246.477C435.314 244.897 435.169 243.219 435.406 241.573C437.092 230.588 443.021 187.482 434.805 172.112L396.309 169.884Z"
    fill="#455A64"/>
  <path
    d="M435.619 83.6853L445.685 127.18C446.333 129.984 445.969 132.927 444.66 135.49C443.901 136.969 442.848 138.278 441.564 139.336C440.281 140.394 438.795 141.178 437.198 141.64C435.601 142.103 433.926 142.234 432.276 142.026C430.626 141.817 429.036 141.274 427.604 140.428L404.949 127.05V83.6853H435.619Z"
    fill="#263238"/>
  <path
    d="M406.281 117.962C403.999 117.765 401.706 118.153 399.616 119.089C397.527 120.026 395.711 121.48 394.34 123.314C390.592 128.217 376.223 146.888 376.223 146.888C376.223 146.888 355.007 136.279 354.005 135.03C353.003 133.781 353.557 131.234 353.84 129.844C354.123 128.453 354.606 125.329 354.912 124.457C355.455 122.936 353.203 123.349 351.871 124.775C350.539 126.201 349.962 128.983 349.29 129.49C348.618 129.997 343.597 124.174 341.145 121.38C338.693 118.587 337.609 116.666 335.923 117.844C334.745 118.669 335.499 120.331 337.255 122.724C338.07 123.74 338.826 124.803 339.518 125.907C339.719 126.331 339.082 126.673 338.823 126.909C338.351 127.333 337.503 128.087 337.444 128.688C337.456 129.051 337.432 129.415 337.373 129.773C337.149 130.574 336.194 130.952 335.888 131.73C335.802 132.319 335.771 132.914 335.794 133.509C335.723 133.887 335.511 134.228 335.44 134.617C335.415 134.996 335.473 135.376 335.609 135.73C335.746 136.084 335.957 136.404 336.23 136.668C337.939 138.719 340.285 139.497 342.536 140.747C344.41 141.784 346.343 142.232 348.5 143.187C350.657 144.141 375.611 161.492 379.63 159.3C383.649 157.107 405.844 134.252 405.844 134.252C411.738 124.492 406.281 117.962 406.281 117.962Z"
    fill="#E9A5A5"/>
  <path
    d="M403.982 116.347C403.982 116.347 398.749 115.699 392.36 123.29C385.971 130.881 382.824 134.782 382.824 134.782C385.906 138.487 389.592 141.644 393.727 144.118L403.982 116.347Z"
    fill="#7E70F9"/>
  <path opacity="0.2"
        d="M403.982 116.347C403.982 116.347 398.749 115.699 392.36 123.29C385.971 130.881 382.824 134.782 382.824 134.782C385.906 138.487 389.592 141.644 393.727 144.118L403.982 116.347Z"
        fill="black"/>
  <path
    d="M403.982 116.347L425.659 117.844C428.208 118.014 430.587 119.185 432.276 121.102C433.965 123.018 434.828 125.525 434.676 128.075C434.166 138.321 432.066 148.425 428.452 158.026C428.452 158.026 433.662 165.818 434.806 172.171C434.806 172.171 428.983 177.676 413.589 177.676C398.195 177.676 393.645 169.943 393.645 169.943L395.837 150.271C392.905 145.637 391.867 140.054 392.938 134.676C394.824 125.907 403.982 116.347 403.982 116.347Z"
    fill="#7E70F9"/>
  <path
    d="M429.219 74.3263C429.219 74.3263 430.551 69.2578 431.458 69.3404C432.366 69.4229 432.26 73.8784 432.26 73.8784C432.26 73.8784 436.48 73.5012 436.032 74.7153C435.584 75.9293 430.669 77.167 430.669 77.167L429.219 74.3263Z"
    fill="#263238"/>
  <path
    d="M435.807 91.9952C433.874 106.328 421.816 106.328 421.816 106.328L396.498 95.1895C395.081 93.6754 394.202 91.7366 393.999 89.6731C393.776 88.1093 393.776 86.522 393.999 84.9583C394.812 78.9351 399.315 72.4522 409.133 70.4601C411.287 70.0267 413.479 69.8174 415.675 69.8354C416.73 69.8315 417.784 69.8827 418.834 69.9887C426.484 70.743 431.8 74.3027 434.358 79.8427C434.929 81.0936 435.352 82.4069 435.619 83.756C436.14 86.4728 436.203 89.2574 435.807 91.9952Z"
    fill="#263238"/>
  <path d="M421.805 117.491L409.534 127.05V96.6039H421.805V117.491Z" fill="#FFA8A7"/>
  <path
    d="M409.534 112.776C412.264 111.762 414.76 110.204 416.869 108.196C418.978 106.188 420.658 103.772 421.805 101.095V96.6039H409.534V112.776Z"
    fill="#F28F8F"/>
  <path
    d="M412.174 74.0316C407.518 74.0316 397.617 76.6248 396.474 88.8126C395.33 101 396.474 110.442 402.721 111.35C408.968 112.257 423.608 107.707 425.552 91.9362C427.497 76.1651 416.724 74.0316 412.174 74.0316Z"
    fill="#FFA8A7"/>
  <path d="M404.854 93.9636V101.154L400.646 99.8572L404.854 93.9636Z" fill="#F28F8F"/>
  <path
    d="M409.534 96.6745C410.341 96.6745 410.995 96.0202 410.995 95.2129C410.995 94.4057 410.341 93.7513 409.534 93.7513C408.727 93.7513 408.072 94.4057 408.072 95.2129C408.072 96.0202 408.727 96.6745 409.534 96.6745Z"
    fill="#263238"/>
  <path
    d="M401.366 94.1758C401.366 94.4648 401.28 94.7474 401.119 94.9878C400.959 95.2281 400.73 95.4155 400.463 95.5261C400.196 95.6367 399.902 95.6657 399.619 95.6093C399.335 95.5529 399.075 95.4137 398.87 95.2093C398.666 95.0049 398.527 94.7444 398.47 94.4609C398.414 94.1774 398.443 93.8835 398.554 93.6164C398.664 93.3494 398.852 93.1211 399.092 92.9605C399.332 92.7999 399.615 92.7142 399.904 92.7142C400.096 92.7126 400.287 92.7493 400.465 92.8222C400.643 92.8951 400.805 93.0027 400.941 93.1387C401.077 93.2748 401.185 93.4365 401.257 93.6146C401.33 93.7926 401.367 93.9834 401.366 94.1758Z"
    fill="#263238"/>
  <path
    d="M398.124 91.1348L400.988 89.461C400.988 89.461 399.892 88.2823 398.796 89.0131C398.484 89.2587 398.253 89.5923 398.133 89.9706C398.014 90.349 398.01 90.7545 398.124 91.1348Z"
    fill="#263238"/>
  <path
    d="M402.874 104.065C404.268 104.165 405.655 103.791 406.811 103.004C406.811 103.004 407.082 105.079 405.349 105.48C404.837 105.566 404.31 105.472 403.859 105.214C403.408 104.956 403.06 104.55 402.874 104.065Z"
    fill="#F28F8F"/>
  <path
    d="M400.388 78.1807C400.388 78.1807 402.144 95.0009 425.011 95.5196C425.011 95.5196 431.918 78.8055 418.269 73.3834C404.619 67.9613 400.388 78.1807 400.388 78.1807Z"
    fill="#263238"/>
  <path
    d="M421.179 96.1325C419.706 98.6785 420.083 101.767 422.134 102.828C423.454 103.511 427.344 102.038 428.806 99.4918C430.267 96.9458 429.454 94.7769 427.45 93.5982C425.446 92.4195 422.641 93.5864 421.179 96.1325Z"
    fill="#FFA8A7"/>
  <path
    d="M409.533 116.736C409.533 116.736 401.223 127.05 409.533 127.05C417.843 127.05 421.804 117.491 421.804 117.491L409.533 116.736Z"
    fill="#FFA8A7"/>
  <path
    d="M450.953 154.691C449.02 146.44 443.987 136.609 441.217 131.8L429.607 139.179C429.607 139.179 436.373 150.777 438.435 156.235C439.614 162.73 439.096 174.422 437.764 180.799C437.547 181.892 436.934 182.866 436.043 183.534C433.685 185.266 432.86 186.999 431.163 189.144C429.831 190.83 428.652 191.278 428.876 191.796C429.006 192.067 429.188 192.31 429.412 192.511C429.636 192.711 429.897 192.866 430.18 192.966C430.464 193.065 430.764 193.108 431.064 193.091C431.364 193.075 431.658 192.999 431.929 192.869C433.117 192.294 434.226 191.569 435.229 190.712C434.545 193.108 433.491 195.383 432.106 197.454C428.994 202.169 429.006 204.939 435.819 204.786C440.097 204.692 443.351 201.686 445.967 191.207C446.734 188.19 448.231 182.956 448.867 179.09C450.953 166.195 451.543 160.183 450.953 154.691Z"
    fill="#FFA8A7"/>
  <path
    d="M426.673 117.962C426.673 117.962 418.999 125.742 433.745 147.984C433.745 147.984 442.703 147.489 446.852 141.018L440.9 128.229C439.602 125.441 437.61 123.033 435.115 121.235C432.619 119.437 429.704 118.31 426.649 117.962H426.673Z"
    fill="#7E70F9"/>
  <path opacity="0.2"
        d="M426.673 117.962C426.673 117.962 418.999 125.742 433.745 147.984C433.745 147.984 442.703 147.489 446.852 141.018L440.9 128.229C439.602 125.441 437.61 123.033 435.115 121.235C432.619 119.437 429.704 118.31 426.649 117.962H426.673Z"
        fill="black"/>
</svg>
