<svg width="36" height="36" viewBox="0 0 36 36" fill="none" xmlns="http://www.w3.org/2000/svg">
  <mask id="mask0_1552_303" style="mask-type:luminance" maskUnits="userSpaceOnUse" x="0" y="0" width="36" height="36">
    <path d="M36 0H0V36H36V0Z" fill="white"/>
  </mask>
  <g mask="url(#mask0_1552_303)">
    <path fill-rule="evenodd" clip-rule="evenodd"
          d="M28.0007 25.0019H30.8207C33.6707 25.0019 36.0007 27.3219 36.0007 30.1819V30.8119C36.0007 33.6719 33.6807 36.0019 30.8207 36.0019H5.19072C2.33072 36.0019 0.000718414 33.6719 0.000718414 30.8119V30.1819C0.000718414 27.3319 2.33072 25.0019 5.19072 25.0019C5.47072 25.0019 5.69072 25.2219 5.69072 25.5019C5.69072 25.7819 5.47072 26.0019 5.19072 26.0019C2.88072 26.0019 1.00072 27.8719 1.00072 30.1819V30.8119C1.00072 33.1219 2.88072 35.0019 5.19072 35.0019H25.5607C25.4107 34.8719 25.2707 34.7319 25.1507 34.5719L20.9607 28.7619C20.5607 28.2219 20.4107 27.5619 20.5207 26.9019C20.6007 26.4119 20.8207 25.9719 21.1507 25.6219L19.4107 23.3319C17.4507 24.5519 15.1507 25.2519 12.7307 25.2519C12.0407 25.2519 11.3307 25.2019 10.6307 25.0819C7.29072 24.5219 4.36072 22.7119 2.38072 19.9619C0.410719 17.2119 -0.379281 13.8719 0.170719 10.5519C1.31072 3.68191 7.85072 -0.968087 14.7607 0.171913C21.6707 1.32191 26.3607 7.84191 25.2307 14.7119C24.6707 18.0719 22.8107 20.9019 20.2507 22.7819L21.9707 25.0419C22.4107 24.8519 22.9207 24.7919 23.4107 24.8719C24.0707 24.9819 24.6607 25.3419 25.0407 25.8619L29.2207 31.6719C29.6207 32.2119 29.7707 32.8719 29.6607 33.5319C29.5707 34.1119 29.2707 34.6219 28.8207 35.0019H30.8207C33.1207 35.0019 35.0007 33.1219 35.0007 30.8119V30.1819C35.0007 27.8819 33.1307 26.0019 30.8207 26.0019H28.0007C27.7207 26.0019 27.5007 25.7819 27.5007 25.5019C27.5007 25.2219 27.7207 25.0019 28.0007 25.0019ZM3.20072 19.3719C5.02072 21.9119 7.72072 23.5819 10.8007 24.0919C17.1607 25.1419 23.1907 20.8619 24.2407 14.5419C25.2907 8.22191 20.9607 2.22191 14.6007 1.16191C13.9507 1.05191 13.3107 1.00191 12.6707 1.00191C7.06072 1.00191 2.10072 5.03191 1.16072 10.7119C0.650719 13.7619 1.38072 16.8419 3.20072 19.3719ZM21.5107 27.0619C21.4407 27.4519 21.5407 27.8419 21.7707 28.1719H21.7607L25.9507 33.9819C26.1807 34.3119 26.5307 34.5219 26.9307 34.5919C27.3407 34.6519 27.7307 34.5619 28.0607 34.3319C28.3907 34.1019 28.6007 33.7519 28.6707 33.3619C28.7407 32.9719 28.6407 32.5819 28.4107 32.2519L24.2307 26.4419C24.0007 26.1319 23.6507 25.9219 23.2407 25.8519C23.1507 25.8319 23.0607 25.8319 22.9707 25.8319C22.6607 25.8319 22.3607 25.9219 22.1207 26.0919C21.7907 26.3219 21.5807 26.6719 21.5107 27.0619ZM6.14081 10.3119C4.87081 10.3119 3.83081 11.3519 3.83081 12.6219C3.83081 13.8919 4.87081 14.9319 6.14081 14.9319C7.41081 14.9319 8.45081 13.8919 8.45081 12.6219C8.45081 11.3519 7.41081 10.3119 6.14081 10.3119ZM6.14081 13.9319C5.42081 13.9319 4.83081 13.3419 4.83081 12.6219C4.83081 11.9019 5.42081 11.3119 6.14081 11.3119C6.86081 11.3119 7.45081 11.9019 7.45081 12.6219C7.45081 13.3419 6.86081 13.9319 6.14081 13.9319ZM10.3906 12.6219C10.3906 11.3519 11.4306 10.3119 12.7006 10.3119C13.9706 10.3119 15.0106 11.3519 15.0106 12.6219C15.0106 13.8919 13.9706 14.9319 12.7006 14.9319C11.4306 14.9319 10.3906 13.8919 10.3906 12.6219ZM11.3906 12.6219C11.3906 13.3419 11.9806 13.9319 12.7006 13.9319C13.4206 13.9319 14.0106 13.3419 14.0106 12.6219C14.0106 11.9019 13.4206 11.3119 12.7006 11.3119C11.9806 11.3119 11.3906 11.9019 11.3906 12.6219ZM16.9507 12.6219C16.9507 11.3519 17.9907 10.3119 19.2607 10.3119C20.5307 10.3119 21.5707 11.3519 21.5707 12.6219C21.5707 13.8919 20.5307 14.9319 19.2607 14.9319C17.9907 14.9319 16.9507 13.8919 16.9507 12.6219ZM17.9507 12.6219C17.9507 13.3419 18.5407 13.9319 19.2607 13.9319C19.9807 13.9319 20.5707 13.3419 20.5707 12.6219C20.5707 11.9019 19.9807 11.3119 19.2607 11.3119C18.5407 11.3119 17.9507 11.9019 17.9507 12.6219ZM6.53076 29.6019H13.3208C13.6008 29.6019 13.8208 29.3819 13.8208 29.1019C13.8208 28.8219 13.6008 28.6019 13.3208 28.6019H6.53076C6.25076 28.6019 6.03076 28.8219 6.03076 29.1019C6.03076 29.3819 6.25076 29.6019 6.53076 29.6019ZM18.9108 32.4019H6.53076C6.25076 32.4019 6.03076 32.1819 6.03076 31.9019C6.03076 31.6219 6.25076 31.4019 6.53076 31.4019H18.9108C19.1908 31.4019 19.4108 31.6219 19.4108 31.9019C19.4108 32.1819 19.1908 32.4019 18.9108 32.4019Z"
          fill="url(#paint0_linear_1552_303)"/>
  </g>
  <defs>
    <linearGradient id="paint0_linear_1552_303" x1="3.47734" y1="7.77314" x2="32.9331" y2="27.6141"
                    gradientUnits="userSpaceOnUse">
      <stop stop-color="#9747FF"/>
      <stop offset="0.822115" stop-color="#D7BDF9"/>
    </linearGradient>
  </defs>
</svg>
