<svg width="36" height="36" viewBox="0 0 36 36" fill="none" xmlns="http://www.w3.org/2000/svg">
  <g clip-path="url(#clip0_1552_292)">
    <mask id="mask0_1552_292" style="mask-type:luminance" maskUnits="userSpaceOnUse" x="0" y="0" width="36" height="36">
      <path d="M36 0H0V36H36V0Z" fill="white"/>
    </mask>
    <g mask="url(#mask0_1552_292)">
      <path fill-rule="evenodd" clip-rule="evenodd"
            d="M3.3 19.12H12.74L12.75 19.13C13.03 19.13 13.25 19.35 13.25 19.63C13.25 19.91 13.03 20.13 12.75 20.13H3.3C3.08 20.82 2.45 21.33 1.69 21.33C0.76 21.33 0 20.57 0 19.63C0 18.86 0.52 18.22 1.21 18.01V3.32C0.51 3.11 0 2.47 0 1.7C0 0.76 0.76 0 1.69 0C2.45 0 3.09 0.51 3.3 1.2H17.95C18.17 0.51 18.8 0 19.56 0C20.49 0 21.25 0.76 21.25 1.7C21.25 2.46 20.75 3.09 20.06 3.31V12.62C20.06 12.9 19.84 13.12 19.56 13.12C19.28 13.12 19.06 12.9 19.06 12.62V3.31C18.53 3.15 18.11 2.73 17.95 2.2H3.3C3.14 2.73 2.73 3.14 2.21 3.31V18.01C2.73 18.18 3.14 18.59 3.3 19.12ZM20.24 1.7C20.24 1.31 19.93 1 19.55 1C19.17 1 18.86 1.31 18.86 1.7C18.86 2.09 19.17 2.4 19.55 2.4C19.93 2.4 20.24 2.09 20.24 1.7ZM1.69 1C1.31 1 1 1.32 1 1.7C1 2.09 1.31 2.4 1.69 2.4C2.07 2.4 2.38 2.09 2.38 1.7C2.38 1.31 2.07 1 1.69 1ZM1 19.62C1 20.01 1.31 20.32 1.69 20.32C2.07 20.32 2.38 20.01 2.38 19.62C2.38 19.23 2.07 18.92 1.69 18.92C1.31 18.92 1 19.23 1 19.62ZM29.7086 10.5889L26.3399 10.41C26.0699 10.39 25.8299 10.61 25.8099 10.88C25.7999 11.16 26.0099 11.39 26.2799 11.41L31.0799 11.66H31.1099C31.2499 11.66 31.3899 11.6 31.4799 11.49C31.5799 11.38 31.6299 11.22 31.5999 11.07L30.7899 6.29002C30.7399 6.02002 30.4799 5.84002 30.2099 5.88002C29.9399 5.93002 29.7499 6.18002 29.7999 6.46002L30.3699 9.83002L24.6999 4.75002C24.4899 4.57002 24.1799 4.58002 23.9899 4.79002C23.8099 5.00002 23.8199 5.31002 24.0299 5.50002L29.7086 10.5889ZM10.2999 26.33C10.2499 26.05 10.4399 25.8 10.7099 25.75H10.6899C10.9599 25.7 11.2199 25.89 11.2699 26.16L12.0799 30.94C12.1099 31.09 12.0599 31.25 11.9599 31.36C11.8699 31.47 11.7299 31.53 11.5899 31.53H11.5599L6.75989 31.28C6.48989 31.26 6.26989 31.02 6.28989 30.75C6.30989 30.48 6.55989 30.26 6.81989 30.28L10.2099 30.46L4.52989 25.37C4.31989 25.18 4.30989 24.87 4.48989 24.66C4.67989 24.45 4.98989 24.44 5.19989 24.62L10.8699 29.7L10.2999 26.33ZM30.8 14.67H20C17.13 14.67 14.8 17.02 14.8 19.9V30.77C14.8 33.65 17.13 36 20 36H30.8C33.67 36 36 33.65 36 30.77V19.9C36 17.02 33.67 14.67 30.8 14.67ZM35 30.77C35 33.1 33.12 35 30.8 35H20C17.69 35 15.8 33.1 15.8 30.77V19.9C15.8 17.57 17.68 15.67 20 15.67H30.8C33.11 15.67 35 17.57 35 19.9V30.77ZM30.7 22.43C30.7 22.15 30.92 21.93 31.2 21.93C31.48 21.93 31.7 22.15 31.7 22.43V28.24C31.7 28.52 31.48 28.74 31.2 28.74C30.92 28.74 30.7 28.52 30.7 28.24V22.43ZM25.4099 20.31C25.1299 20.31 24.9099 20.53 24.9099 20.81V29.87C24.9099 30.15 25.1299 30.37 25.4099 30.37C25.6899 30.37 25.9099 30.15 25.9099 29.87V20.81C25.9099 20.53 25.6899 20.31 25.4099 20.31ZM27.8 18.85C27.8 18.57 28.02 18.35 28.3 18.35C28.58 18.35 28.8 18.57 28.8 18.85V31.81C28.8 32.09 28.58 32.31 28.3 32.31C28.02 32.31 27.8 32.09 27.8 31.81V18.85ZM19.6101 21.28C19.3301 21.28 19.1101 21.5 19.1101 21.78V28.89C19.1101 29.17 19.3301 29.39 19.6101 29.39C19.8901 29.39 20.1101 29.17 20.1101 28.89V21.78C20.1101 21.5 19.8901 21.28 19.6101 21.28ZM22.01 23.24C22.01 22.96 22.23 22.74 22.51 22.74C22.79 22.74 23.01 22.96 23.01 23.24V27.42C23.01 27.7 22.79 27.92 22.51 27.92C22.23 27.92 22.01 27.7 22.01 27.42V23.24ZM14.1901 6.46997H7.06006C6.78006 6.46997 6.56006 6.68997 6.56006 6.96997V7.86997C6.56006 8.14997 6.78006 8.36997 7.06006 8.36997C7.34006 8.36997 7.56006 8.14997 7.56006 7.86997V7.46997H10.1701L10.1301 13.85H8.84006C8.56006 13.85 8.34006 14.07 8.34006 14.35C8.34006 14.63 8.56006 14.85 8.84006 14.85H12.4001C12.6801 14.85 12.9001 14.63 12.9001 14.35C12.9001 14.07 12.6801 13.85 12.4001 13.85H11.1301L11.1701 7.46997H13.6901V7.86997C13.6901 8.14997 13.9101 8.36997 14.1901 8.36997C14.4701 8.36997 14.6901 8.14997 14.6901 7.86997V6.96997C14.6901 6.68997 14.4701 6.46997 14.1901 6.46997Z"
            fill="url(#paint0_linear_1552_292)"/>
    </g>
  </g>
  <defs>
    <linearGradient id="paint0_linear_1552_292" x1="3.47727" y1="7.77273" x2="32.9318" y2="27.6136"
                    gradientUnits="userSpaceOnUse">
      <stop stop-color="#9747FF"/>
      <stop offset="0.822115" stop-color="#D7BDF9"/>
    </linearGradient>
    <clipPath id="clip0_1552_292">
      <rect width="36" height="36" fill="white"/>
    </clipPath>
  </defs>
</svg>
