<svg width="64" height="79" viewBox="0 0 64 79" fill="none" xmlns="http://www.w3.org/2000/svg">
  <rect width="64" height="78.3915" rx="6.77249" fill="#3D2AD3"/>
  <path fill-rule="evenodd" clip-rule="evenodd"
        d="M1.98362 1.98362C0 3.96723 0 7.15981 0 13.545V64.8466C0 71.2317 0 74.4243 1.98362 76.4079C3.96723 78.3915 7.15981 78.3915 13.545 78.3915H50.455C56.8402 78.3915 60.0328 78.3915 62.0164 76.4079C64 74.4243 64 71.2317 64 64.8466V13.545C64 7.15981 64 3.96723 62.0164 1.98362C60.0328 0 56.8402 0 50.455 0H13.545C7.15981 0 3.96723 0 1.98362 1.98362ZM7.2297 27.7701C7.48418 21.1092 8.2217 10.4306 8.5246 9.01875L8.60638 8.6378H18.0047H27.4031L27.3084 9.696C27.2563 10.2781 27.0101 12.8875 26.7614 15.4949C26.1624 21.7715 26.141 26.7393 26.6898 32.1722C27.3221 38.4334 28.0846 41.364 30.1236 45.3724C31.9657 48.9934 35.081 53.0281 36.7259 53.9234C39.7058 55.5454 43.1992 53.4927 43.2002 50.1193C43.2007 48.7382 42.8538 48.0318 41.3552 46.3616C38.5442 43.2288 36.5906 39.2676 35.9437 35.3891C35.5685 33.1398 35.0126 26.5409 35.0126 24.3363C35.0126 23.2391 35.2392 19.8105 35.516 16.7172C35.793 13.6237 36.0661 10.5399 36.1232 9.86396L36.2269 8.63492L45.7362 8.67877L55.2454 8.72245L55.3643 9.90764C56.4555 20.7814 56.946 32.6014 56.8009 44.532C56.7034 52.5596 56.561 55.9636 56.0824 61.7172C55.8023 65.0848 55.3497 69.3879 55.2412 69.7172C55.1858 69.8851 50.3649 69.9288 31.8888 69.9288H8.60638L8.52138 69.5479C8.32227 68.6551 7.74763 61.206 7.40138 55.0293C7.11254 49.8782 7.00959 33.5277 7.2297 27.7701Z"
        fill="white"/>
</svg>
