<svg width="936" height="252" viewBox="0 0 936 252" fill="none" xmlns="http://www.w3.org/2000/svg">
  <path fill-rule="evenodd" clip-rule="evenodd"
        d="M5.80012 1.57404C4.5572 7.36762 1.53084 51.186 0.486618 78.5185C-0.416567 102.144 0.00584555 169.237 1.1911 190.375C2.61188 215.72 4.96989 246.287 5.78692 249.95L6.13569 251.513H101.673C177.488 251.513 197.271 251.334 197.498 250.645C197.943 249.293 199.8 231.636 200.949 217.817C202.913 194.208 203.498 180.24 203.898 147.3C204.493 98.3434 202.481 49.841 198.003 5.22152L197.515 0.358212L158.495 0.178965L119.474 -0.000976562L119.048 5.04227C118.814 7.81574 117.694 20.4701 116.557 33.164C115.421 45.8572 114.492 59.9261 114.492 64.4281C114.492 73.4745 116.772 100.553 118.312 109.783C120.967 125.697 128.983 141.952 140.518 154.807C146.667 161.661 148.091 164.559 148.089 170.227C148.084 184.069 133.75 192.492 121.522 185.836C114.772 182.162 101.989 165.606 94.4297 150.748C86.0627 134.3 82.9342 122.274 80.3393 96.5822C78.0876 74.2888 78.1751 53.9039 80.6332 28.1485C81.6538 17.4493 82.664 6.74165 82.8779 4.35307L83.2663 0.0108331H44.701H6.13569L5.80012 1.57404Z"
        fill="#3D2AD3"/>
  <path d="M231.871 252V46.6802H280.383L353.887 172.126V47.1702H401.419V252H351.927L278.913 128.514V252H231.871Z"
        fill="#3D2AD3"/>
  <path
    d="M513.269 133.904C526.663 133.904 533.36 129.331 533.36 120.184V87.8422C533.36 78.6951 526.663 74.1215 513.269 74.1215H475.537V133.904H513.269ZM428.495 252V46.6802H523.069C538.75 46.6802 552.144 49.947 563.251 56.4806C574.685 63.0143 580.402 71.9981 580.402 83.432V124.594C580.402 136.028 574.685 145.012 563.251 151.545C552.144 158.079 538.75 161.346 523.069 161.346H475.537V252H428.495Z"
    fill="#3D2AD3"/>
  <path
    d="M691.747 224.559C704.815 224.559 711.348 219.985 711.348 210.838V87.8422C711.348 78.6951 704.815 74.1215 691.747 74.1215H670.186C656.792 74.1215 650.095 78.6951 650.095 87.8422V210.838C650.095 219.985 656.792 224.559 670.186 224.559H691.747ZM603.053 83.432C603.053 72.3248 608.607 63.5043 619.714 56.9707C631.148 50.1103 644.868 46.6802 660.876 46.6802H701.058C726.212 46.6802 743.853 53.7038 753.98 67.7512C757.247 72.3248 758.88 77.5517 758.88 83.432V215.248C758.88 226.356 753.164 235.339 741.73 242.2C730.622 248.733 717.065 252 701.058 252H660.876C635.721 252 618.08 244.976 607.953 230.929C604.686 226.356 603.053 221.129 603.053 215.248V83.432Z"
    fill="#3D2AD3"/>
  <path
    d="M868.63 224.559C882.024 224.559 888.721 219.985 888.721 210.838V87.8422C888.721 78.6951 882.024 74.1215 868.63 74.1215H830.898V224.559H868.63ZM878.431 46.6802C894.111 46.6802 907.505 49.947 918.613 56.4806C930.047 63.0143 935.764 71.9981 935.764 83.432V215.248C935.764 226.682 929.883 235.666 918.123 242.2C907.342 248.733 894.111 252 878.431 252H783.856V46.6802H878.431Z"
    fill="#3D2AD3"/>
</svg>
