<svg width="204" height="252" viewBox="0 0 204 252" fill="none" xmlns="http://www.w3.org/2000/svg">
  <path fill-rule="evenodd" clip-rule="evenodd"
        d="M5.80012 1.57404C4.5572 7.36762 1.53084 51.186 0.486618 78.5185C-0.416567 102.144 0.00584555 169.237 1.1911 190.375C2.61188 215.72 4.96989 246.287 5.78692 249.95L6.13569 251.513H101.673C177.488 251.513 197.271 251.334 197.498 250.645C197.943 249.293 199.8 231.636 200.949 217.817C202.913 194.208 203.498 180.24 203.898 147.3C204.493 98.3434 202.481 49.841 198.003 5.22152L197.515 0.358212L158.495 0.178965L119.474 -0.000976562L119.048 5.04227C118.814 7.81574 117.694 20.4701 116.557 33.164C115.421 45.8572 114.492 59.9261 114.492 64.4281C114.492 73.4745 116.772 100.553 118.312 109.783C120.967 125.697 128.983 141.952 140.518 154.807C146.667 161.661 148.091 164.559 148.089 170.227C148.084 184.069 133.75 192.492 121.522 185.836C114.772 182.162 101.989 165.606 94.4297 150.748C86.0627 134.3 82.9342 122.274 80.3393 96.5822C78.0876 74.2888 78.1751 53.9039 80.6332 28.1485C81.6538 17.4493 82.664 6.74165 82.8779 4.35307L83.2663 0.0108331H44.701H6.13569L5.80012 1.57404Z"
        fill="#3D2AD3"/>
</svg>
