<svg width="28" height="28" viewBox="0 0 28 28" fill="none" xmlns="http://www.w3.org/2000/svg">
  <circle cx="14" cy="14" r="14" fill="#3D2AD3"/>
  <g clip-path="url(#clip0_974_141)">
    <path
      d="M13.4347 10.0229L13.8192 10.7119C14.1663 11.3337 14.027 12.1494 13.4804 12.696C13.4804 12.696 12.8175 13.359 14.0195 14.5611C15.221 15.7627 15.8845 15.1001 15.8845 15.1001C16.431 14.5535 17.2467 14.4142 17.8686 14.7613L18.5576 15.1458C19.4966 15.6698 19.6074 16.9866 18.7822 17.8119C18.2862 18.3079 17.6787 18.6938 17.0071 18.7192C15.8765 18.7621 13.9565 18.476 12.0305 16.55C10.1046 14.624 9.81844 12.704 9.8613 11.5734C9.88676 10.9018 10.2726 10.2943 10.7686 9.79835C11.5939 8.97303 12.9107 9.08392 13.4347 10.0229Z"
      fill="#E9E2FF"/>
  </g>
  <defs>
    <clipPath id="clip0_974_141">
      <rect width="10.9351" height="10.9351" fill="white" transform="translate(8.79297 8.47168)"/>
    </clipPath>
  </defs>
</svg>
