<svg width="28" height="28" viewBox="0 0 28 28" fill="none" xmlns="http://www.w3.org/2000/svg">
  <circle cx="14" cy="14" r="14" fill="#E0E0E0"/>
  <path fill-rule="evenodd" clip-rule="evenodd"
        d="M14.0984 19.1875C13.1895 19.1875 12.3341 18.8884 11.6216 18.3991L10.9625 19.0666C11.7284 19.6342 12.6416 20.0148 13.6297 20.1039V21.0625H13.1609C12.9022 21.0625 12.6922 21.2725 12.6922 21.5312C12.6922 21.7905 12.9022 22 13.1609 22H15.0359C15.2947 22 15.5047 21.7905 15.5047 21.5312C15.5047 21.2725 15.2947 21.0625 15.0359 21.0625H14.5672V20.1039C16.8819 19.8953 18.8408 18.1558 19.2547 15.9062H18.3172C17.8902 17.7845 16.1056 19.1875 14.0984 19.1875ZM17.3797 14.9688V12.5027L12.0992 17.5539C12.6537 17.9838 13.3419 18.25 14.0984 18.25C15.9106 18.25 17.3797 16.7809 17.3797 14.9688ZM9.90171 15.9742L9.87969 15.9062H8.94218C8.99328 16.1856 9.06921 16.457 9.16625 16.7186L9.90171 15.9742ZM19.0564 8.41234L8 18.9986L8.66937 19.6586L19.73 9.07798L19.0564 8.41234ZM14.0984 7C12.2862 7 10.8172 8.46906 10.8172 10.2812L10.8158 15.1136L17.1402 9.06297C16.6559 7.85547 15.4794 7 14.0984 7Z"
        fill="black"/>
</svg>
