<svg width="28" height="28" viewBox="0 0 28 28" fill="none" xmlns="http://www.w3.org/2000/svg">
  <circle cx="14" cy="14" r="14" fill="#E0E0E0"/>
  <path fill-rule="evenodd" clip-rule="evenodd"
        d="M11.8125 10.2812C11.8125 8.98656 12.862 7.9375 14.1562 7.9375C15.4505 7.9375 16.5 8.98656 16.5 10.2812V14.9688C16.5 16.2634 15.4505 17.3125 14.1562 17.3125C12.862 17.3125 11.8125 16.2634 11.8125 14.9688V10.2812ZM14.1562 18.25C15.9684 18.25 17.4375 16.7809 17.4375 14.9688V10.2812C17.4375 8.46906 15.9684 7 14.1562 7C12.3441 7 10.875 8.46906 10.875 10.2812V14.9688C10.875 16.7809 12.3441 18.25 14.1562 18.25ZM19.3125 15.9062H18.375C17.948 17.7845 16.1634 19.1875 14.1562 19.1875C12.1491 19.1875 10.3645 17.7845 9.9375 15.9062H9C9.41391 18.1558 11.3733 19.8953 13.6875 20.1039V21.0625H13.2188C12.96 21.0625 12.75 21.2725 12.75 21.5312C12.75 21.7905 12.96 22 13.2188 22H15.0938C15.3525 22 15.5625 21.7905 15.5625 21.5312C15.5625 21.2725 15.3525 21.0625 15.0938 21.0625H14.625V20.1039C16.9392 19.8953 18.8986 18.1558 19.3125 15.9062Z"
        fill="black"/>
</svg>
