<svg width="29" height="29" viewBox="0 0 29 29" fill="none" xmlns="http://www.w3.org/2000/svg">
  <path fill-rule="evenodd" clip-rule="evenodd"
        d="M19.8219 18.5813C20.1641 18.9226 20.1641 19.4826 19.8219 19.8239C19.4807 20.1651 18.9259 20.1651 18.5838 19.8239L14.8773 16.1139L11.1446 19.85C10.7998 20.1913 10.2416 20.1913 9.89684 19.85C9.55297 19.5 9.55297 18.9401 9.89684 18.5988L13.6296 14.8626L9.92307 11.1613C9.58094 10.8201 9.58094 10.2601 9.92307 9.91881C10.2634 9.57756 10.8182 9.57756 11.1603 9.91881L14.8668 13.6288L18.6276 9.86636C18.9723 9.52511 19.5297 9.52511 19.8744 9.86636C20.2183 10.2164 20.2183 10.7676 19.8744 11.1176L16.1146 14.8801L19.8219 18.5813ZM14.8721 0.871338C7.1397 0.871338 0.87207 7.13634 0.87207 14.8713C0.87207 22.6063 7.1397 28.8713 14.8721 28.8713C22.6044 28.8713 28.8721 22.6063 28.8721 14.8713C28.8721 7.13634 22.6044 0.871338 14.8721 0.871338Z"
        fill="#EA4335"/>
</svg>
