<svg width="14" height="18" viewBox="0 0 14 18" fill="none" xmlns="http://www.w3.org/2000/svg">
  <path fill-rule="evenodd" clip-rule="evenodd"
        d="M4.28444 4.46068L4.29948 7.54889H8.73041C9.51735 7.54889 10.1551 6.90903 10.1512 6.12209L10.1501 5.88748C10.1462 5.10042 9.50231 4.46068 8.71524 4.46068H4.89101H4.28444ZM10.7132 12.2433L10.7119 11.9954C10.7078 11.1176 9.99035 10.4049 9.11267 10.4049H8.74392H4.31312L4.32988 13.834H9.12932C10.007 13.834 10.7175 13.12 10.7132 12.2433ZM12.1197 8.73758C13.0015 9.55004 13.5606 10.708 13.5669 11.9952L13.5681 12.2431C13.58 14.6938 11.5951 16.6884 9.14344 16.6884H9.03495L9.04124 18H6.18666L6.18025 16.6884H5.01025L5.01666 18H2.16208L2.15567 16.6884H1.4893H0.0736022L0.0596708 13.8338H1.47537L1.45873 10.4047L1.44468 7.54885L1.42963 4.46064H0.0139314L0 1.60495H2.08207L2.0743 0H4.92888L4.93665 1.60495H6.10677L6.09888 0H8.95358L8.96135 1.61839C11.2025 1.75437 12.9936 3.61403 13.0047 5.88744L13.0058 6.12205C13.0106 7.10724 12.6773 8.01266 12.1197 8.73758Z"
        fill="white"/>
</svg>
