<svg width="30" height="24" viewBox="0 0 30 24" fill="none" xmlns="http://www.w3.org/2000/svg">
  <path fill-rule="evenodd" clip-rule="evenodd"
        d="M27.7045 3.03181C27.7045 3.58305 27.2587 4.03081 26.7075 4.03081V4.02981H18.9434C16.7872 2.11043 13.9494 0.94228 10.8429 0.94029C10.8738 0.416912 11.3036 0 11.836 0H26.7075C27.2587 0 27.7045 0.445767 27.7045 0.998V3.03181ZM10.8367 2.31169C16.8227 2.31169 21.6734 7.16338 21.6734 13.1494C21.6734 19.1344 16.8227 23.9861 10.8367 23.9861C4.85269 23.9861 0 19.1344 0 13.1494C0 7.16338 4.85269 2.31169 10.8367 2.31169ZM11.4287 19.0548C12.4496 18.9503 13.2257 18.619 13.7541 18.0588C14.2824 17.4986 14.5471 16.7971 14.5471 15.9543C14.5471 15.4827 14.4725 15.0678 14.3252 14.7096C14.178 14.3514 13.973 14.023 13.7133 13.7315C13.4536 13.4399 13.1402 13.1693 12.777 12.9215C12.4138 12.6758 12.0198 12.428 11.5939 12.1812C11.3123 12.0161 11.0208 11.8509 10.7203 11.6867C10.4188 11.5225 10.1462 11.3345 9.90836 11.1225C9.54418 10.7783 9.3611 10.3793 9.3611 9.92455C9.3611 9.52356 9.49443 9.19918 9.76308 8.95142C10.0297 8.70566 10.4108 8.58028 10.9044 8.58028C11.3233 8.58028 11.6825 8.66386 11.9859 8.82605C12.2874 8.99023 12.565 9.20615 12.8188 9.4758L14.2695 8.29571C13.8645 7.92357 13.4436 7.63104 13.0098 7.41811C12.573 7.20517 12.0456 7.06388 11.4287 6.99622V5.47186H10.2875V6.99622C9.82677 7.05293 9.41085 7.17134 9.03772 7.35243C8.6626 7.53353 8.35016 7.76139 8.09544 8.03302C7.84271 8.30765 7.64868 8.61212 7.51435 8.95043C7.38002 9.28973 7.31435 9.6539 7.31435 10.0449C7.31435 10.6191 7.44072 11.1096 7.69544 11.5176C7.94818 11.9255 8.26658 12.2837 8.64767 12.5942C9.02677 12.9056 9.43871 13.1832 9.8805 13.43C10.3233 13.6767 10.7322 13.9265 11.1113 14.1802C11.4864 14.432 11.8029 14.7066 12.0576 15.0021C12.3103 15.2976 12.4377 15.6499 12.4377 16.0578C12.4377 16.4469 12.3143 16.7782 12.0675 17.0479C11.8208 17.3175 11.4536 17.4518 10.968 17.4518C10.6865 17.4518 10.4357 17.42 10.2158 17.3563C9.99691 17.2946 9.79692 17.2071 9.61383 17.0946C9.43075 16.9822 9.25961 16.8508 9.09841 16.7026C8.93722 16.5523 8.77205 16.3981 8.59991 16.2369L7.12828 17.3663C7.56112 17.813 8.01783 18.1822 8.49643 18.4757C8.97802 18.7692 9.57304 18.9553 10.2875 19.0359V20.8279H11.4287V19.0548ZM20.9702 19.9551H27.8378C28.39 19.9551 28.8368 20.4018 28.8368 20.9541V22.9879C28.8368 23.5391 28.39 23.9859 27.8378 23.9859H16.4518C18.2727 23.0386 19.8299 21.6486 20.9702 19.9551ZM25.9256 18.9968C26.4779 18.9968 26.9246 18.55 26.9246 17.9998V15.964C26.9246 15.4128 26.4779 14.966 25.9256 14.966H22.9117C22.6958 16.4068 22.2272 17.766 21.5535 18.9968H25.9256ZM22.6264 9.97792H29.0005C29.5527 9.97792 29.9995 10.4247 30.0005 10.9759V13.0107C30.0005 13.561 29.5537 14.0087 29.0015 14.0087H23.0135C23.0324 13.7251 23.0463 13.4386 23.0463 13.15C23.0463 12.0525 22.8981 10.9898 22.6264 9.97792ZM19.9099 4.98883C20.9576 6.153 21.7855 7.51816 22.3258 9.01864H23.9307C24.481 9.01864 24.9277 8.57288 24.9277 8.02164V5.98584C24.9277 5.4346 24.481 4.98883 23.9307 4.98883H19.9099Z"
        fill="white"/>
</svg>
