<?xml version="1.0" encoding="utf-8"?>
<!-- Generator: Adobe Illustrator 26.0.1, SVG Export Plug-In . SVG Version: 6.00 Build 0)  -->
<svg version="1.1" xmlns="http://www.w3.org/2000/svg" x="0px" y="0px"
     viewBox="0 0 712.72 213.62" style="enable-background:new 0 0 712.72 213.62;" xml:space="preserve">
<style type="text/css">
	.st0{display:none;fill:#FFFFFF;}
	.st1{fill:#3D2AD3;}
	.st2{fill:#FFFFFF;}
</style>
  <g id="Layer_4">
	<rect x="5216.36" y="-433.19" class="st0" width="1920" height="1080"/>
</g>
  <g id="Layer_3">
	<rect x="-603.64" y="-433.19" class="st0" width="1920" height="1080"/>
    <g>
		<path class="st1" d="M0,45.61h24.93v77.86c0,5.51,1.89,10.2,5.67,14.06c3.78,3.86,8.31,5.79,13.59,5.79h43.36V45.61h24.93v97.6
			c0,6.85-2.44,12.7-7.33,17.55c-4.88,4.84-10.83,7.27-17.84,7.27H44.19c-8.11,0-15.52-1.99-22.21-5.97
			c-6.7-3.98-12.03-9.31-16.01-16.01C1.99,139.35,0,131.94,0,123.83V45.61z"/>
      <path class="st1" d="M140.84,70.42c0-6.85,2.46-12.7,7.38-17.55c4.92-4.84,10.85-7.27,17.78-7.27h43.13
			c8.11,0,15.52,1.99,22.21,5.97c6.69,3.98,12.03,9.32,16.01,16.01c3.98,6.7,5.97,14.1,5.97,22.21v78.22h-24.93V90.15
			c0-5.51-1.87-10.2-5.61-14.06c-3.74-3.86-8.29-5.79-13.65-5.79h-43.36v97.71h-24.93V70.42z"/>
      <path class="st1" d="M280.5,70.54c0-6.85,2.44-12.72,7.33-17.6c4.88-4.88,10.75-7.33,17.61-7.33h43.36
			c8.11,0,15.52,1.99,22.21,5.97c6.69,3.98,12.03,9.28,16.01,15.89c3.98,6.62,5.97,13.98,5.97,22.09v34.27
			c0,8.11-1.99,15.52-5.97,22.21c-3.98,6.7-9.32,12.03-16.01,16.01c-6.7,3.98-14.1,5.97-22.21,5.97h-29.18v-24.93h29.18
			c5.36,0,9.9-1.91,13.65-5.73c3.74-3.82,5.61-8.41,5.61-13.77V89.8c0-5.36-1.87-9.9-5.61-13.65c-3.74-3.74-8.29-5.61-13.65-5.61
			h-43.36v143.09H280.5V70.54z"/>
      <path class="st1" d="M600.24,89.8c0-8.11,1.99-15.52,5.97-22.21c3.98-6.69,9.31-12.03,16.01-16.01c6.69-3.98,14.1-5.97,22.21-5.97
			h29.18v24.93h-29.18c-5.28,0-9.81,1.91-13.59,5.73c-3.78,3.82-5.67,8.41-5.67,13.77v33.79c0,5.28,1.89,9.81,5.67,13.59
			c3.78,3.78,8.31,5.67,13.59,5.67h43.36V0h24.93v143.09c0,6.85-2.44,12.72-7.33,17.61c-4.88,4.88-10.75,7.33-17.61,7.33h-43.36
			c-8.11,0-15.52-1.99-22.21-5.97c-6.7-3.98-12.03-9.29-16.01-15.95c-3.98-6.66-5.97-14-5.97-22.04V89.8z"/>
      <g>
			<path class="st1" d="M467.43,98.15c-4.74,0-8.59,3.85-8.59,8.6c0,4.74,3.85,8.59,8.59,8.59c4.75,0,8.6-3.85,8.6-8.59
				C476.03,102,472.18,98.15,467.43,98.15z M527.53,98.15c-4.75,0-8.59,3.85-8.59,8.6c0,4.74,3.84,8.59,8.59,8.59s8.6-3.85,8.6-8.59
				C536.13,102,532.28,98.15,527.53,98.15z M527.53,98.15c-4.75,0-8.59,3.85-8.59,8.6c0,4.74,3.84,8.59,8.59,8.59s8.6-3.85,8.6-8.59
				C536.13,102,532.28,98.15,527.53,98.15z M467.43,98.15c-4.74,0-8.59,3.85-8.59,8.6c0,4.74,3.85,8.59,8.59,8.59
				c4.75,0,8.6-3.85,8.6-8.59C476.03,102,472.18,98.15,467.43,98.15z M467.43,98.15c-4.74,0-8.59,3.85-8.59,8.6
				c0,4.74,3.85,8.59,8.59,8.59c4.75,0,8.6-3.85,8.6-8.59C476.03,102,472.18,98.15,467.43,98.15z M527.53,98.15
				c-4.75,0-8.59,3.85-8.59,8.6c0,4.74,3.84,8.59,8.59,8.59s8.6-3.85,8.6-8.59C536.13,102,532.28,98.15,527.53,98.15z M527.53,98.15
				c-4.75,0-8.59,3.85-8.59,8.6c0,4.74,3.84,8.59,8.59,8.59s8.6-3.85,8.6-8.59C536.13,102,532.28,98.15,527.53,98.15z M467.43,98.15
				c-4.74,0-8.59,3.85-8.59,8.6c0,4.74,3.85,8.59,8.59,8.59c4.75,0,8.6-3.85,8.6-8.59C476.03,102,472.18,98.15,467.43,98.15z
				 M579.84,84.55c-3.34-22.2-22.5-39.22-45.63-39.22H460.8c-23.14,0-42.3,17.03-45.64,39.23c-0.33,2.26-0.51,4.56-0.51,6.91v30.55
				c0,1.7,0.09,3.37,0.27,5.02c2.5,23.12,22.09,41.12,45.88,41.12h73.41c23.78,0,43.37-18,45.87-41.12
				c0.18-1.65,0.27-3.32,0.27-5.02V91.47C580.35,89.12,580.17,86.81,579.84,84.55z M565.82,112.82c-1.31,1.31-3.02,2.19-4.94,2.44
				c-2.82,14.08-15.25,24.68-30.15,24.68h-66.77c-14.94,0-27.38-10.64-30.17-24.75c-3.99-0.74-7.01-4.24-7.01-8.44
				c0-2.38,0.96-4.52,2.52-6.08c1.2-1.2,2.75-2.05,4.49-2.37c2.79-14.12,15.23-24.75,30.17-24.75h66.77
				c14.9,0,27.33,10.6,30.15,24.68c4.21,0.55,7.46,4.16,7.46,8.52C568.34,109.12,567.38,111.27,565.82,112.82z M527.53,98.15
				c-4.75,0-8.59,3.85-8.59,8.6c0,4.74,3.84,8.59,8.59,8.59s8.6-3.85,8.6-8.59C536.13,102,532.28,98.15,527.53,98.15z M467.43,98.15
				c-4.74,0-8.59,3.85-8.59,8.6c0,4.74,3.85,8.59,8.59,8.59c4.75,0,8.6-3.85,8.6-8.59C476.03,102,472.18,98.15,467.43,98.15z
				 M467.43,98.15c-4.74,0-8.59,3.85-8.59,8.6c0,4.74,3.85,8.59,8.59,8.59c4.75,0,8.6-3.85,8.6-8.59
				C476.03,102,472.18,98.15,467.43,98.15z M527.53,98.15c-4.75,0-8.59,3.85-8.59,8.6c0,4.74,3.84,8.59,8.59,8.59s8.6-3.85,8.6-8.59
				C536.13,102,532.28,98.15,527.53,98.15z M527.53,98.15c-4.75,0-8.59,3.85-8.59,8.6c0,4.74,3.84,8.59,8.59,8.59s8.6-3.85,8.6-8.59
				C536.13,102,532.28,98.15,527.53,98.15z M467.43,98.15c-4.74,0-8.59,3.85-8.59,8.6c0,4.74,3.85,8.59,8.59,8.59
				c4.75,0,8.6-3.85,8.6-8.59C476.03,102,472.18,98.15,467.43,98.15z M527.53,98.15c-4.75,0-8.59,3.85-8.59,8.6
				c0,4.74,3.84,8.59,8.59,8.59s8.6-3.85,8.6-8.59C536.13,102,532.28,98.15,527.53,98.15z M527.53,98.15c-4.75,0-8.59,3.85-8.59,8.6
				c0,4.74,3.84,8.59,8.59,8.59s8.6-3.85,8.6-8.59C536.13,102,532.28,98.15,527.53,98.15z"/>
        <path class="st2" d="M536.13,106.75c0,4.74-3.85,8.59-8.6,8.59s-8.59-3.85-8.59-8.59c0-4.75,3.84-8.6,8.59-8.6
				S536.13,102,536.13,106.75z"/>
        <path class="st2" d="M476.03,106.75c0,4.74-3.85,8.59-8.6,8.59c-4.74,0-8.59-3.85-8.59-8.59c0-4.75,3.85-8.6,8.59-8.6
				C472.18,98.15,476.03,102,476.03,106.75z"/>
        <path class="st1" d="M416.1,84.52v42.58c-0.23,0-0.45-0.01-0.68-0.02c-6.49-0.32-11.76-5.34-12.45-11.74
				c-0.05-0.48-0.08-0.95-0.08-1.44V97.71c0-7.19,5.75-13.03,12.9-13.18C415.89,84.52,416,84.52,416.1,84.52z"/>
        <path class="st1" d="M592.23,97.71v16.19c0,0.49-0.02,0.96-0.08,1.44c-0.7,6.43-6.01,11.48-12.57,11.74
				c-0.18,0.02-0.37,0.02-0.55,0.02V84.52c0.05,0,0.12,0,0.17,0.01C586.42,84.62,592.23,90.48,592.23,97.71z"/>
        <path class="st1"
              d="M517.5,45.33h-39.99v-0.56c0-3.89,3.15-7.04,7.04-7.04h25.91c3.89,0,7.04,3.15,7.04,7.04V45.33z"/>
        <path class="st2" d="M476.03,106.75c0,4.74-3.85,8.59-8.6,8.59c-4.74,0-8.59-3.85-8.59-8.59c0-4.75,3.85-8.6,8.59-8.6
				C472.18,98.15,476.03,102,476.03,106.75z"/>
        <path class="st2" d="M536.13,106.75c0,4.74-3.85,8.59-8.6,8.59s-8.59-3.85-8.59-8.59c0-4.75,3.84-8.6,8.59-8.6
				S536.13,102,536.13,106.75z"/>
        <path class="st1" d="M497.5,0.37c-5.74,0-10.4,4.66-10.4,10.41c0,4.6,2.98,8.5,7.12,9.87c1.03,0.34,2.13,0.53,3.28,0.53
				s2.25-0.18,3.28-0.53c4.14-1.37,7.13-5.27,7.13-9.87C507.91,5.03,503.25,0.37,497.5,0.37z M497.5,1.97
				c4.86,0.32,8.81,3.94,8.81,8.81C506.31,10.78,504.14,4.71,497.5,1.97z"/>
        <path class="st1" d="M476.03,106.75c0,4.74-3.85,8.59-8.6,8.59c-4.74,0-8.59-3.85-8.59-8.59c0-4.75,3.85-8.6,8.59-8.6
				C472.18,98.15,476.03,102,476.03,106.75z"/>
        <path class="st1" d="M536.13,106.75c0,4.74-3.85,8.59-8.6,8.59s-8.59-3.85-8.59-8.59c0-4.75,3.84-8.6,8.59-8.6
				S536.13,102,536.13,106.75z"/>
        <rect x="494.22" y="17.66" class="st1" width="6.56" height="24.63"/>
		</g>
	</g>
</g>
</svg>
